# xmcd
#
# Track frame offsets:
#	150
#	21805
#	56120
#	57597
#	76042
#	101570
#	151995
#	170362
#	203305
#	243672
#	290030
#	304885
#	322840
#
# Disc length: 4725 seconds
#
# Revision: 1
# Processed by: cddbd v1.4PL0 Copyright (c) Steve Scherf et al.
# Submitted via: EasyCDDAExtractor 5.0.6
#
DISCID=a912730d
DTITLE=Various Artist - Hit The High Hard One (Live)
DYEAR=1998
DGENRE=Blues
TTITLE0=Popa chubby - Heart Attack And Vine
TTITLE1=Popa chubby - Trail Of Tears
TTITLE2=Popa chubby - Size 13
TTITLE3=Popa chubby - What's So Great About Rock And Roll
TTITLE4=Popa Chubby - Stoop Down Baby
TTITLE5=Popa chubby - Long Distance Pain
TTITLE6=Popa chubby - Caffeine And Nicotine
TTITLE7=Popa chubby - Isis
TTITLE8=Popa chubby - Sweet Goddess Of Love And Beer
TTITLE9=Popa chubby - San Catri
TTITLE10=Popa chubby - Wild Thing
TTITLE11=Popa chubby - Rock And Roll
TTITLE12=Popa chubby - Dirty Lie
EXTD=
EXTT0=
EXTT1=
EXTT2=
EXTT3=
EXTT4=
EXTT5=
EXTT6=
EXTT7=
EXTT8=
EXTT9=
EXTT10=
EXTT11=
EXTT12=
PLAYORDER=
